<svg width="24" height="24" viewBox="0 0 24 24" fill="none" xmlns="http://www.w3.org/2000/svg">
<circle cx="12" cy="12" r="12" fill="white"/>
<path d="M19.5 12.1801C19.5 11.6534 19.4538 11.1534 19.3746 10.6667H11.9182V13.6734H16.1875C15.9961 14.6601 15.4352 15.4934 14.6038 16.0601V18.0601H17.1509C18.6421 16.6667 19.5 14.6134 19.5 12.1801Z" fill="#FF0000"/>
<path d="M11.9184 19.9999C14.0563 19.9999 15.8445 19.2799 17.151 18.0599L14.604 16.0599C13.8913 16.5399 12.9873 16.8333 11.9184 16.8333C9.85302 16.8333 8.1044 15.4266 7.47754 13.5266H4.85132V15.5866C6.15123 18.1999 8.82365 19.9999 11.9184 19.9999Z" fill="#FF0000"/>
<path d="M7.47744 13.5267C7.31247 13.0467 7.22669 12.5333 7.22669 12C7.22669 11.4667 7.31907 10.9533 7.47744 10.4733V8.41333H4.85121C4.31013 9.49333 4 10.7067 4 12C4 13.2933 4.31013 14.5067 4.85121 15.5867L7.47744 13.5267Z" fill="#FF0000"/>
<path d="M11.9184 7.16667C13.0863 7.16667 14.1289 7.57333 14.9537 8.36667L17.2104 6.08667C15.8445 4.79333 14.0563 4 11.9184 4C8.82365 4 6.15123 5.8 4.85132 8.41333L7.47754 10.4733C8.1044 8.57333 9.85302 7.16667 11.9184 7.16667Z" fill="#FF0000"/>
</svg>
