<svg width="200" height="200" viewBox="0 0 200 200" fill="none" xmlns="http://www.w3.org/2000/svg">
<g clip-path="url(#clip0_83_2783)">
<path d="M99.9997 200C76.9291 199.986 54.5724 191.998 36.7171 177.389C18.8618 162.779 6.60562 142.446 2.02492 119.835C-2.55577 97.2235 0.820628 73.7239 11.5821 53.3169C22.3437 32.91 39.8286 16.8504 61.0749 7.85886C85.5123 -2.46463 113.05 -2.6576 137.629 7.32242C162.209 17.3024 181.817 36.6379 192.141 61.0753C202.464 85.5127 202.657 113.05 192.677 137.63C182.697 162.209 163.362 181.818 138.924 192.141C126.61 197.353 113.371 200.026 99.9997 200ZM99.9997 3.66412C46.8802 3.66412 3.66375 46.8806 3.66375 100C3.66375 153.12 46.8802 196.336 99.9997 196.336C153.119 196.336 196.336 153.12 196.336 100C196.336 46.8806 153.119 3.66412 99.9997 3.66412Z" fill="#660D22"/>
<path d="M199.259 56.8413H1.16985C0.760802 56.8413 0.429199 57.1729 0.429199 57.582V60.7776C0.429199 61.1867 0.760802 61.5183 1.16985 61.5183H199.259C199.668 61.5183 200 61.1867 200 60.7776V57.582C200 57.1729 199.668 56.8413 199.259 56.8413Z" fill="#660D22"/>
<path d="M59.4203 196.786L59.4203 30.819C59.4203 30.345 59.036 29.9607 58.562 29.9607H54.8495C54.3754 29.9607 53.9911 30.345 53.9911 30.819L53.9911 196.786C53.9911 197.26 54.3754 197.644 54.8495 197.644H58.562C59.036 197.644 59.4203 197.26 59.4203 196.786Z" fill="#660D22"/>
<path d="M124.957 124.317C121.167 121.279 116.597 119.372 111.771 118.817C106.946 118.261 102.062 119.079 97.6805 121.176C93.2992 123.273 89.5989 126.564 87.0052 130.671C84.4116 134.778 83.0299 139.534 83.0192 144.391C83.0249 150.402 85.1268 156.223 88.9628 160.851C92.7989 165.478 98.1288 168.624 104.034 169.744C109.94 170.865 116.052 169.891 121.316 166.989C126.581 164.088 130.669 159.442 132.876 153.851C134.039 150.876 134.642 147.712 134.653 144.518V144.384C134.656 140.524 133.786 136.714 132.107 133.238C130.428 129.763 127.983 126.713 124.957 124.317ZM93.3883 150.535C93.3099 150.33 93.2361 150.125 93.1576 149.917C90.6657 142.593 90.7257 135.272 92.8461 129.808C93.336 128.522 93.9782 127.299 94.7589 126.165C96.3071 123.941 98.3422 122.296 100.797 121.463C109.494 118.433 120.031 126.336 124.378 138.982C128.859 151.763 125.433 164.409 116.739 167.439C116.429 167.547 116.116 167.642 115.802 167.723C107.569 169.855 97.8161 162.37 93.3883 150.535Z" fill="#ED9122"/>
<path d="M117.442 24.7532H151.757C152.562 24.7532 153.334 25.0728 153.903 25.6419C154.472 26.2109 154.791 26.9826 154.791 27.7873V34.3379H114.413V27.785C114.413 26.9815 114.733 26.2111 115.301 25.6427C115.869 25.0743 116.639 24.7544 117.442 24.7532Z" fill="#660D22"/>
<path d="M154.711 37.3535V39.0379C154.711 39.0379 142.927 46.8597 142.927 58.1634V133.297C142.927 169.128 107.579 188.606 74.8747 165.521L76.4483 163.756L75.0085 165.372C59.7617 153.392 69.9324 135.607 69.9324 135.607L86.5452 128.14C83.0696 132.845 81.1985 138.542 81.2084 144.391C81.2069 150.828 83.4518 157.065 87.556 162.024C91.6601 166.984 97.3662 170.356 103.69 171.559C110.014 172.762 116.56 171.72 122.198 168.614C127.837 165.508 132.215 160.532 134.577 154.543C135.961 151.394 136.698 147.983 136.478 144.552C136.478 144.506 136.478 144.458 136.478 144.409C136.481 140.277 135.549 136.198 133.751 132.478C131.953 128.757 129.335 125.493 126.095 122.928V58.1634C126.095 46.8574 114.312 39.0379 114.312 39.0379V37.3535H154.711Z" fill="#660D22"/>
</g>
<defs>
<clipPath id="clip0_83_2783">
<rect width="200" height="200" fill="white"/>
</clipPath>
</defs>
</svg>
