<svg width="165" height="19" viewBox="0 0 165 19" fill="none" xmlns="http://www.w3.org/2000/svg">
<path d="M18.4936 9.67243C18.4936 14.8279 14.8274 18.6686 9.74069 18.6686C4.65401 18.6686 0.987793 14.8279 0.987793 9.67243C0.987793 4.51699 4.65651 0.701416 9.74069 0.701416C14.8249 0.701416 18.4936 4.55225 18.4936 9.67243ZM14.2622 9.67243C14.2622 7.21938 12.7367 4.789 9.73319 4.789C6.72969 4.789 5.20669 7.21938 5.20669 9.67243C5.20669 12.1255 6.73219 14.5785 9.73319 14.5785C12.7342 14.5785 14.2622 12.1255 14.2622 9.67243Z" fill="#ED9122"/>
<path d="M40.544 4.98784H34.9096V8.30979H39.8312C40.0625 8.30709 40.2855 8.39671 40.4514 8.55905C40.6173 8.72139 40.7126 8.94325 40.7165 9.17616V11.4428C40.7119 11.6755 40.6164 11.897 40.4507 12.0592C40.2849 12.2214 40.0623 12.3113 39.8312 12.3092H34.9096V17.4647C34.9099 17.5818 34.8873 17.6979 34.8429 17.8062C34.7985 17.9146 34.7333 18.013 34.651 18.0958C34.5688 18.1787 34.4711 18.2443 34.3635 18.289C34.2559 18.3337 34.1407 18.3565 34.0243 18.3562H31.5635C31.3322 18.3516 31.112 18.2555 30.9506 18.0886C30.7891 17.9218 30.6994 17.6976 30.7007 17.4647V1.90012C30.6987 1.66696 30.7882 1.44243 30.9498 1.27545C31.1114 1.10846 31.332 1.01254 31.5635 1.00856H40.544C40.6604 1.00789 40.7758 1.0305 40.8835 1.07506C40.9913 1.11963 41.0891 1.18528 41.1715 1.2682C41.2538 1.35112 41.319 1.44967 41.3632 1.55815C41.4075 1.66662 41.4299 1.78285 41.4293 1.90012V4.13154C41.4227 4.36269 41.3263 4.58199 41.1606 4.74217C40.995 4.90235 40.7736 4.99058 40.544 4.98784Z" fill="#ED9122"/>
<path d="M64.0219 0.998794C64.2532 1.00277 64.4735 1.09878 64.6347 1.26584C64.7959 1.4329 64.8848 1.65743 64.8822 1.89035V12.1509C64.8822 16.2888 62.839 18.6436 58.5576 18.6436C55.2115 18.6436 52.8057 16.8353 52.233 14.2312C52.1868 13.998 52.2333 13.7558 52.3623 13.5567C52.4913 13.3575 52.6927 13.2172 52.9232 13.1658L55.6541 12.647C55.812 12.6242 55.9727 12.6589 56.1075 12.7448C56.2422 12.8306 56.3422 12.9621 56.3894 13.1155C56.6394 13.8836 57.2771 14.5762 58.5301 14.5762C60.3032 14.5762 60.6733 13.1885 60.6733 12.1483V1.89035C60.6726 1.77309 60.6951 1.65685 60.7393 1.54838C60.7836 1.43991 60.8488 1.34136 60.9311 1.25844C61.0134 1.17551 61.1113 1.10987 61.219 1.0653C61.3267 1.02073 61.4421 0.998125 61.5586 0.998794H64.0219Z" fill="#ED9122"/>
<path d="M86.6234 14.3319C87.1224 14.3319 87.601 14.5314 87.9541 14.8865C88.3072 15.2416 88.5059 15.7233 88.5066 16.2258V16.45C88.5066 16.953 88.3082 17.4353 87.955 17.791C87.6019 18.1466 87.1229 18.3464 86.6234 18.3464H79.5611C79.0617 18.3464 78.5827 18.1466 78.2295 17.791C77.8764 17.4353 77.678 16.953 77.678 16.45V2.89523C77.678 2.39226 77.8764 1.90989 78.2295 1.55424C78.5827 1.19858 79.0617 0.998779 79.5611 0.998779H86.3984C86.8978 0.998779 87.3768 1.19858 87.7299 1.55424C88.0831 1.90989 88.2815 2.39226 88.2815 2.89523V4.12176C88.2775 4.35467 88.1822 4.57654 88.0163 4.73888C87.8504 4.90122 87.6275 4.99083 87.3962 4.98813H82.8822C82.6169 4.98813 82.3625 5.09427 82.1749 5.2832C81.9873 5.47213 81.8819 5.72837 81.8819 5.99555V6.68814C81.8819 6.95533 81.9873 7.21157 82.1749 7.40049C82.3625 7.58942 82.6169 7.69556 82.8822 7.69556H85.6131C86.1121 7.69556 86.5907 7.89502 86.9438 8.25013C87.2969 8.60524 87.4956 9.08696 87.4962 9.5895C87.4962 10.0925 87.2978 10.5748 86.9447 10.9305C86.5915 11.2861 86.1125 11.486 85.6131 11.486H82.8822C82.6169 11.486 82.3625 11.5921 82.1749 11.781C81.9873 11.9699 81.8819 12.2262 81.8819 12.4934V13.3346C81.8819 13.6017 81.9873 13.858 82.1749 14.0469C82.3625 14.2358 82.6169 14.342 82.8822 14.342L86.6234 14.3319Z" fill="#ED9122"/>
<path d="M113.535 13.2663C113.535 16.0895 111.099 18.6433 106.783 18.6433C103.937 18.6559 101.231 17.6485 100.156 15.13C100.112 15.0146 100.092 14.8915 100.097 14.7682C100.102 14.6448 100.132 14.5238 100.185 14.4124C100.238 14.301 100.312 14.2016 100.405 14.1202C100.497 14.0387 100.604 13.977 100.721 13.9387L102.972 13.2461C103.163 13.1838 103.369 13.1891 103.557 13.261C103.745 13.3328 103.903 13.4671 104.005 13.6415C104.422 14.3971 105.31 15.0544 106.755 15.0544C108.201 15.0544 109.256 14.4852 109.256 13.3443C109.256 12.0322 107.583 11.8584 105.638 11.3622C102.194 10.4959 100.618 8.9092 100.618 6.01037C100.618 2.66324 103.369 0.681152 106.943 0.681152C109.551 0.681152 111.79 1.89508 112.75 4.05095C112.803 4.16854 112.83 4.29659 112.828 4.42587C112.827 4.55515 112.796 4.68244 112.74 4.79856C112.684 4.91468 112.602 5.01674 112.502 5.09738C112.402 5.17801 112.285 5.23523 112.16 5.26488L109.909 5.83659C109.728 5.87549 109.54 5.85829 109.369 5.78725C109.198 5.71622 109.052 5.59468 108.951 5.43866C108.606 4.8191 107.916 4.32295 106.76 4.32295C105.53 4.32295 104.692 4.99288 104.692 5.98518C104.692 7.34771 106.76 7.67008 108.088 8.04031C112.305 9.22654 113.535 10.5387 113.535 13.2663Z" fill="#ED9122"/>
<path d="M138.83 0.998794C138.947 0.998128 139.062 1.02072 139.17 1.06525C139.278 1.10979 139.376 1.1754 139.458 1.25829C139.541 1.34118 139.606 1.43971 139.651 1.54819C139.695 1.65668 139.718 1.77297 139.718 1.89035V11.6043C139.718 16.3392 137.009 18.6436 132.508 18.6436C128.006 18.6436 125.321 16.3392 125.321 11.6043V1.89035C125.319 1.65719 125.408 1.43267 125.57 1.26568C125.731 1.0987 125.952 1.00277 126.183 0.998794H128.664C128.895 1.00277 129.116 1.09878 129.277 1.26584C129.438 1.4329 129.527 1.65743 129.524 1.89035V11.1586C129.524 13.463 130.632 14.5787 132.503 14.5787C134.374 14.5787 135.479 13.463 135.479 11.1586V1.89035C135.479 1.77318 135.501 1.65709 135.546 1.54878C135.59 1.44046 135.655 1.34204 135.738 1.25918C135.82 1.17633 135.918 1.11067 136.025 1.06598C136.133 1.02129 136.248 0.998461 136.364 0.998794H138.83Z" fill="#ED9122"/>
<path d="M164.988 13.2662C164.988 16.0894 162.552 18.6432 158.235 18.6432C155.382 18.6432 152.676 17.6509 151.593 15.1173C151.55 15.0019 151.53 14.8788 151.535 14.7555C151.54 14.6321 151.57 14.5111 151.622 14.3997C151.675 14.2883 151.75 14.1889 151.842 14.1075C151.934 14.026 152.042 13.9643 152.158 13.926L154.409 13.2334C154.601 13.171 154.808 13.1761 154.996 13.248C155.184 13.3199 155.342 13.4542 155.445 13.6288C155.862 14.3844 156.747 15.0417 158.195 15.0417C159.643 15.0417 160.696 14.4725 160.696 13.3316C160.696 12.0195 159.023 11.8457 157.08 11.3496C153.634 10.4832 152.061 8.89651 152.061 5.99767C152.061 2.65054 154.812 0.668457 158.383 0.668457C160.991 0.668457 163.232 1.88239 164.192 4.03826C164.246 4.15602 164.272 4.28424 164.271 4.41366C164.269 4.54309 164.238 4.67049 164.182 4.78664C164.125 4.9028 164.043 5.00482 163.943 5.08533C163.842 5.16584 163.725 5.22283 163.6 5.25219L161.349 5.82389C161.174 5.85628 160.993 5.83661 160.829 5.76729C160.664 5.69798 160.524 5.582 160.424 5.43352C160.081 4.81396 159.391 4.31781 158.233 4.31781C157.005 4.31781 156.167 4.98774 156.167 5.98004C156.167 7.34257 158.233 7.66494 159.563 8.03517C163.757 9.22643 164.988 10.5386 164.988 13.2662Z" fill="#ED9122"/>
</svg>
