<svg width="236" height="25" viewBox="0 0 236 25" fill="none" xmlns="http://www.w3.org/2000/svg">
<path d="M17.6933 2.12597V5.42613C17.6907 5.80994 17.5411 6.17735 17.2767 6.44923C17.0122 6.72111 16.6542 6.87571 16.2796 6.87975H12.4093V22.2891C12.4127 22.678 12.2656 23.0525 12.0002 23.3307C11.7348 23.6089 11.3727 23.7681 10.9931 23.7735H7.19053C6.80891 23.7721 6.44333 23.616 6.17372 23.3393C5.9041 23.0626 5.75238 22.6878 5.75172 22.2968V6.88745H1.90655C1.52999 6.88407 1.1699 6.72879 0.904327 6.45525C0.638755 6.18171 0.489098 5.81196 0.487793 5.42613L0.487793 2.12597C0.491065 1.74149 0.641591 1.3737 0.906953 1.10182C1.17232 0.82994 1.53128 0.675716 1.90655 0.672363H16.2796C16.6542 0.676394 17.0122 0.830997 17.2767 1.10288C17.5411 1.37476 17.6907 1.74217 17.6933 2.12597Z" fill="#660D22"/>
<path d="M36.6796 18.1691C36.8653 18.1691 37.0491 18.2067 37.2205 18.2797C37.3919 18.3527 37.5475 18.4597 37.6784 18.5946C37.8093 18.7294 37.9129 18.8894 37.9833 19.0654C38.0536 19.2414 38.0893 19.4299 38.0884 19.6201V22.2962C38.0917 22.6852 37.9446 23.0597 37.6792 23.3379C37.4138 23.616 37.0517 23.7752 36.6721 23.7807H24.2091C23.8306 23.7732 23.4702 23.6132 23.206 23.3354C22.9418 23.0575 22.7952 22.6841 22.7979 22.2962V3.23234C22.7979 2.5512 23.062 1.89797 23.5321 1.41633C24.0021 0.934699 24.6397 0.66412 25.3045 0.66412H36.3713C36.7516 0.660688 37.1178 0.811673 37.3898 1.08407C37.6617 1.35646 37.8174 1.7281 37.8226 2.11773V4.83234C37.8174 5.22174 37.6616 5.59312 37.3896 5.8651C37.1176 6.13709 36.7514 6.2875 36.3713 6.28338H30.5434C30.4011 6.28304 30.2601 6.31151 30.1286 6.36715C29.9971 6.42278 29.8776 6.50449 29.7769 6.60758C29.6763 6.71067 29.5966 6.83312 29.5423 6.96788C29.488 7.10264 29.4602 7.24706 29.4605 7.39285V8.34566C29.4605 8.49124 29.4885 8.63539 29.543 8.76985C29.5974 8.90431 29.6772 9.02645 29.7778 9.12927C29.8784 9.23209 29.9978 9.31357 30.1292 9.36904C30.2605 9.42452 30.4013 9.4529 30.5434 9.45256H34.2758C34.9406 9.45256 35.5781 9.72314 36.0482 10.2048C36.5183 10.6864 36.7824 11.3396 36.7824 12.0208V13.3152C36.7864 13.7046 36.6396 14.0798 36.3741 14.3585C36.1087 14.6372 35.7462 14.7967 35.3661 14.8022H30.5434C30.4013 14.8018 30.2605 14.8302 30.1292 14.8857C29.9978 14.9412 29.8784 15.0226 29.7778 15.1255C29.6772 15.2283 29.5974 15.3504 29.543 15.4849C29.4885 15.6193 29.4605 15.7635 29.4605 15.9091V17.0622C29.4605 17.2078 29.4885 17.3519 29.543 17.4864C29.5974 17.6208 29.6772 17.743 29.7778 17.8458C29.8784 17.9486 29.9978 18.0301 30.1292 18.0856C30.2605 18.1411 30.4013 18.1694 30.5434 18.1691H36.6796Z" fill="#660D22"/>
<path d="M61.2948 16.7157C61.2948 20.7119 57.9108 24.1764 52.4338 24.1764C48.7265 24.1764 44.7009 22.8923 43.2821 19.2249C43.2222 19.0766 43.1931 18.9172 43.1969 18.7568C43.2006 18.5964 43.237 18.4386 43.3038 18.2935C43.3706 18.1484 43.4663 18.0192 43.5848 17.9142C43.7032 17.8092 43.8417 17.7308 43.9915 17.6839L47.601 16.5282C47.8473 16.453 48.111 16.4642 48.3503 16.56C48.5896 16.6559 48.7909 16.8309 48.922 17.0573C49.4359 17.8817 50.5639 18.5083 52.1431 18.5083C53.8827 18.5083 54.6246 17.6839 54.6246 16.8261C54.6246 15.4393 52.9477 15.3083 50.6942 14.7459C46.3101 13.657 43.8311 11.8412 43.8311 7.61652C43.8311 3.1812 47.4381 0.243164 52.4012 0.243164C55.9105 0.243164 59.0388 1.89453 60.2946 5.06371C60.3526 5.22142 60.3775 5.38989 60.3677 5.55812C60.3579 5.72635 60.3136 5.89057 60.2377 6.04008C60.1617 6.18959 60.0559 6.32103 59.9271 6.42583C59.7983 6.53063 59.6493 6.60643 59.49 6.6483L55.913 7.53947C55.6874 7.59573 55.4505 7.5818 55.2326 7.49946C55.0147 7.41712 54.8257 7.2701 54.6898 7.07719C54.3013 6.45055 53.5919 5.98827 52.4664 5.98827C51.1454 5.98827 50.2104 6.54814 50.2104 7.60624C50.2104 8.92631 52.1756 9.09067 53.9153 9.58634C59.4248 11.1709 61.2948 13.0509 61.2948 16.7157Z" fill="#660D22"/>
<path d="M83.5964 2.12597V5.42613C83.5938 5.81038 83.4438 6.17817 83.1788 6.45012C82.9139 6.72208 82.5552 6.87638 82.1801 6.87975H78.3124V22.2891C78.3158 22.6785 78.1683 23.0534 77.9024 23.3316C77.6365 23.6098 77.2737 23.7687 76.8937 23.7735H73.0936C72.9029 23.7745 72.714 23.7368 72.5376 23.6626C72.3612 23.5884 72.201 23.4791 72.066 23.3411C71.9311 23.2031 71.8242 23.0391 71.7514 22.8585C71.6787 22.6779 71.6416 22.4844 71.6423 22.2891V6.87975H67.8096C67.4344 6.87639 67.0754 6.72217 66.81 6.45029C66.5447 6.17841 66.3941 5.81062 66.3909 5.42613V2.12597C66.3941 1.74149 66.5447 1.3737 66.81 1.10182C67.0754 0.82994 67.4344 0.675716 67.8096 0.672363H82.1801C82.5552 0.675725 82.9139 0.830032 83.1788 1.10198C83.4438 1.37394 83.5938 1.74172 83.5964 2.12597Z" fill="#660D22"/>
<path d="M90.1104 0.672176H93.913C94.2931 0.668749 94.659 0.819816 94.9306 1.09228C95.2021 1.36474 95.3572 1.73639 95.3618 2.12579V22.2966C95.3625 22.4917 95.3255 22.685 95.2529 22.8654C95.1803 23.0458 95.0736 23.2098 94.939 23.3477C94.8043 23.4857 94.6443 23.595 94.4682 23.6694C94.2921 23.7437 94.1034 23.7817 93.913 23.781H90.1104C89.7306 23.7756 89.3682 23.6165 89.1024 23.3384C88.8367 23.0603 88.689 22.6858 88.6917 22.2966V2.12579C88.695 1.7413 88.8455 1.37352 89.1108 1.10163C89.3762 0.829753 89.7352 0.675528 90.1104 0.672176Z" fill="#660D22"/>
<path d="M120.209 0.672222H125.012C125.387 0.675584 125.746 0.829891 126.011 1.10184C126.276 1.3738 126.426 1.74158 126.428 2.12583V22.2966C126.432 22.6856 126.284 23.0601 126.019 23.3383C125.754 23.6164 125.392 23.7756 125.012 23.781H121.209C121.019 23.7821 120.83 23.7444 120.653 23.6702C120.477 23.596 120.317 23.4867 120.182 23.3487C120.047 23.2107 119.94 23.0467 119.867 22.8661C119.795 22.6855 119.757 22.492 119.758 22.2966V11.1043L114.79 19.9518C114.687 20.1306 114.54 20.2791 114.364 20.383C114.189 20.487 113.99 20.5428 113.787 20.5451H113.078C112.875 20.543 112.676 20.4873 112.501 20.3834C112.325 20.2794 112.178 20.1308 112.075 19.9518L107.112 11.1043V22.2966C107.113 22.4917 107.076 22.6851 107.003 22.8655C106.931 23.0459 106.824 23.2098 106.689 23.3478C106.555 23.4858 106.395 23.5951 106.219 23.6694C106.042 23.7438 105.854 23.7817 105.663 23.781H101.876C101.496 23.7756 101.134 23.6164 100.869 23.3383C100.603 23.0601 100.456 22.6856 100.46 22.2966V2.12583C100.462 1.74158 100.612 1.3738 100.877 1.10184C101.142 0.829891 101.501 0.675584 101.876 0.672222H106.676C106.983 0.668821 107.286 0.749646 107.553 0.90633C107.819 1.06301 108.04 1.28986 108.192 1.56339L113.444 11.0298L118.695 1.56339C118.847 1.29007 119.068 1.06332 119.334 0.906628C119.6 0.74994 119.902 0.669011 120.209 0.672222Z" fill="#660D22"/>
<path d="M174.935 0.672176H178.695C179.07 0.675538 179.429 0.829846 179.694 1.1018C179.959 1.37375 180.109 1.74154 180.112 2.12579V22.2966C180.115 22.6829 179.97 23.0552 179.708 23.3329C179.446 23.6106 179.087 23.7716 178.71 23.781H175.101C174.81 23.7817 174.525 23.7063 174.271 23.562C174.017 23.4177 173.803 23.2093 173.65 22.9566L166.493 11.4664V22.2966C166.496 22.686 166.349 23.0609 166.083 23.3391C165.817 23.6174 165.454 23.7763 165.074 23.781H161.272C161.081 23.7817 160.893 23.7437 160.717 23.6694C160.541 23.595 160.381 23.4857 160.246 23.3477C160.111 23.2098 160.005 23.0458 159.932 22.8654C159.859 22.685 159.822 22.4917 159.823 22.2966V2.12579C159.828 1.73639 159.983 1.36474 160.254 1.09228C160.526 0.819816 160.892 0.668749 161.272 0.672176H164.849C165.139 0.671525 165.425 0.746916 165.679 0.891196C165.933 1.03548 166.147 1.24386 166.3 1.49657L173.484 12.9868V2.12579C173.489 1.73615 173.645 1.36452 173.917 1.09212C174.189 0.81973 174.555 0.668744 174.935 0.672176Z" fill="#660D22"/>
<path d="M186.636 0.672176H190.439C190.819 0.668749 191.185 0.819816 191.456 1.09228C191.728 1.36474 191.883 1.73639 191.888 2.12579V22.2966C191.888 22.4917 191.851 22.685 191.779 22.8654C191.706 23.0458 191.6 23.2098 191.465 23.3477C191.33 23.4857 191.17 23.595 190.994 23.6694C190.818 23.7437 190.629 23.7817 190.439 23.781H186.636C186.258 23.7736 185.898 23.6135 185.634 23.3355C185.37 23.0576 185.224 22.6842 185.228 22.2966V2.12579C185.231 1.74306 185.38 1.37679 185.643 1.10519C185.906 0.833595 186.263 0.678195 186.636 0.672176Z" fill="#660D22"/>
<path d="M210.873 18.1691C211.06 18.1667 211.245 18.2025 211.419 18.2745C211.592 18.3464 211.75 18.4531 211.883 18.5881C212.016 18.7232 212.121 18.8841 212.192 19.0612C212.264 19.2384 212.3 19.4284 212.299 19.6201V22.2962C212.302 22.6852 212.155 23.0597 211.89 23.3379C211.624 23.616 211.262 23.7752 210.883 23.7807H198.402C198.023 23.7752 197.66 23.616 197.395 23.3379C197.13 23.0597 196.983 22.6852 196.986 22.2962V3.23234C196.986 2.5512 197.25 1.89797 197.72 1.41633C198.19 0.934699 198.828 0.66412 199.493 0.66412H210.544C210.925 0.660688 211.291 0.811673 211.563 1.08407C211.835 1.35646 211.99 1.7281 211.996 2.11773V4.83234C211.99 5.22174 211.835 5.59312 211.563 5.8651C211.291 6.13709 210.924 6.2875 210.544 6.28338H204.736C204.594 6.28304 204.453 6.31151 204.322 6.36715C204.19 6.42278 204.071 6.50449 203.97 6.60758C203.869 6.71067 203.79 6.83312 203.735 6.96788C203.681 7.10264 203.653 7.24706 203.654 7.39285V8.34566C203.654 8.49124 203.682 8.63539 203.736 8.76985C203.79 8.90431 203.87 9.02645 203.971 9.12927C204.071 9.23209 204.191 9.31357 204.322 9.36904C204.454 9.42452 204.594 9.4529 204.736 9.45256H208.469C209.134 9.45256 209.771 9.72314 210.241 10.2048C210.711 10.6864 210.975 11.3396 210.975 12.0208V13.3152C210.977 13.5095 210.942 13.7023 210.871 13.8825C210.8 14.0626 210.694 14.2265 210.561 14.3648C210.428 14.503 210.269 14.6129 210.094 14.6879C209.919 14.763 209.731 14.8018 209.542 14.8022H204.736C204.594 14.8018 204.454 14.8302 204.322 14.8857C204.191 14.9412 204.071 15.0226 203.971 15.1255C203.87 15.2283 203.79 15.3504 203.736 15.4849C203.682 15.6193 203.654 15.7635 203.654 15.9091V17.0622C203.654 17.2078 203.682 17.3519 203.736 17.4864C203.79 17.6208 203.87 17.743 203.971 17.8458C204.071 17.9486 204.191 18.0301 204.322 18.0856C204.454 18.1411 204.594 18.1694 204.736 18.1691H210.873Z" fill="#660D22"/>
<path d="M235.488 16.7157C235.488 20.7119 232.104 24.1764 226.627 24.1764C222.919 24.1764 218.894 22.8923 217.475 19.2249C217.415 19.0766 217.386 18.9172 217.39 18.7568C217.393 18.5964 217.43 18.4386 217.497 18.2935C217.564 18.1484 217.659 18.0192 217.778 17.9142C217.896 17.8092 218.035 17.7308 218.184 17.6839L221.794 16.5282C222.04 16.453 222.304 16.4642 222.543 16.56C222.783 16.6559 222.984 16.8309 223.115 17.0573C223.629 17.8817 224.757 18.5083 226.336 18.5083C228.076 18.5083 228.818 17.6839 228.818 16.8261C228.818 15.4393 227.141 15.3083 224.887 14.7459C220.503 13.657 218.024 11.8412 218.024 7.61652C218.024 3.1812 221.631 0.243164 226.587 0.243164C230.096 0.243164 233.224 1.89453 234.48 5.06371C234.538 5.22142 234.563 5.38989 234.553 5.55812C234.543 5.72635 234.499 5.89057 234.423 6.04008C234.347 6.18959 234.241 6.32103 234.112 6.42583C233.984 6.53063 233.835 6.60643 233.675 6.6483L230.096 7.53947C229.87 7.59573 229.633 7.5818 229.415 7.49946C229.198 7.41712 229.009 7.2701 228.873 7.07719C228.484 6.45055 227.775 5.98827 226.649 5.98827C225.328 5.98827 224.393 6.54814 224.393 7.60624C224.393 8.92631 226.358 9.09067 228.098 9.58634C233.618 11.1709 235.488 13.0509 235.488 16.7157Z" fill="#660D22"/>
<path d="M144.619 0.5V6.02167H151.018L151.063 6.08587L150.933 6.15778L151.048 6.19888L151.026 6.2374L150.665 6.2939V6.31188L151.023 6.34526C151.023 6.3581 151.023 6.37095 151.023 6.38636L150.364 6.43515V6.46854H150.998V6.51733H150.434C150.436 6.53357 150.436 6.54989 150.434 6.56613H151.028V8.43322L148.389 8.63868V8.66436L150.941 8.75425V8.7825L150.557 8.91605C150.7 8.96485 150.808 9.00851 150.913 9.03932C150.932 9.04112 150.95 9.04694 150.967 9.05639C150.983 9.06584 150.997 9.07872 151.009 9.0942C151.02 9.10968 151.028 9.12742 151.032 9.14627C151.037 9.16513 151.037 9.18469 151.033 9.20369C151.033 9.34237 151.033 9.48106 151.033 9.64285H144.619V24.2432C150.585 23.5369 154.716 18.665 154.716 12.3498C154.716 6.03451 150.595 1.19342 144.619 0.5Z" fill="#660D22"/>
<path d="M143.565 0.410156C143.59 0.759434 143.618 1.10614 143.643 1.45542H143.67L143.706 0.412724L143.565 0.410156Z" fill="#660D22"/>
<path d="M141.089 9.64322H135.196V7.62974L137.954 7.5116V7.48592L136.247 7.41401C135.931 7.40117 135.615 7.39089 135.299 7.37292C135.259 7.37292 135.221 7.32926 135.181 7.30614C135.224 7.28303 135.264 7.2445 135.307 7.24194C135.873 7.22396 136.44 7.21112 137.006 7.19828C137.121 7.20523 137.236 7.19834 137.35 7.17773L135.214 7.09041C135.161 6.72316 135.161 6.72316 135.482 6.66666C135.684 6.63919 135.884 6.598 136.081 6.54338C135.856 6.54338 135.632 6.52027 135.407 6.49972C135.334 6.48342 135.263 6.45842 135.196 6.42524L135.389 6.26601C135.362 6.1941 135.139 6.22749 135.219 6.02203H141.092V0.567139C135.419 1.49427 131.537 6.25831 131.537 12.3501C131.537 18.4419 135.424 23.2445 141.102 24.1639L141.089 9.64322Z" fill="#660D22"/>
</svg>
